# xmcd
#
# Track frame offsets:
#	150
#	41639
#	54604
#	70963
#	87036
#	107634
#	130472
#	146755
#	172509
#	185170
#
# Disc length: 2697 seconds
#
# Revision: 1
# Processed by: cddbd v1.5.1PL0 Copyright (c) Steve Scherf et al.
# Submitted via: audiograbber 1.83.01
#
DISCID=8c0a870a
DTITLE=Fleetwood Mac - Best of
DYEAR=1900
DGENRE=Blues
TTITLE0=Oh Well
TTITLE1=Dragon Fly
TTITLE2=Rattlesnake Shake
TTITLE3=World In Harmony
TTITLE4=The Green Manalishi
TTITLE5=Searching For Madge
TTITLE6=Before The Beginning
TTITLE7=The Purple Dancer
TTITLE8=Fighting For Maadge
TTITLE9=Coming Your Way
EXTD=
EXTT0=
EXTT1=
EXTT2=
EXTT3=
EXTT4=
EXTT5=
EXTT6=
EXTT7=
EXTT8=
EXTT9=
PLAYORDER=
